<?xml version="1.0" encoding="us-ascii" standalone="no"?><svg xmlns="http://www.w3.org/2000/svg" xmlns:xlink="http://www.w3.org/1999/xlink" contentStyleType="text/css" height="915px" preserveAspectRatio="none" style="width:798px;height:915px;background:#FFFFFF;" version="1.1" viewBox="0 0 798 915" width="798px" zoomAndPan="magnify"><defs/><g><!--class Product--><g id="elem_Product"><rect codeLine="13" fill="#FFFFFF" height="431.0156" id="Product" rx="2.5" ry="2.5" style="stroke:#000000;stroke-width:0.5;" width="307" x="447.25" y="233.17"/><text fill="#000000" font-family="sans-serif" font-size="14" lengthAdjust="spacing" textLength="48" x="576.75" y="252.7032">product</text><line style="stroke:#000000;stroke-width:0.5;" x1="448.25" x2="753.25" y1="260.7794" y2="260.7794"/><ellipse cx="458.25" cy="275.0841" fill="#000000" rx="3" ry="3" style="stroke:#000000;stroke-width:1.0;"/><text fill="#000000" font-family="sans-serif" font-size="14" lengthAdjust="spacing" textLength="152" x="467.25" y="279.3126">prod_id : char(10) &#171;PK&#187;</text><line style="stroke:#000000;stroke-width:1.0;" x1="448.25" x2="753.25" y1="286.3887" y2="286.3887"/><ellipse cx="458.25" cy="300.6934" fill="#000000" rx="3" ry="3" style="stroke:#000000;stroke-width:1.0;"/><text fill="#000000" font-family="sans-serif" font-size="14" lengthAdjust="spacing" textLength="166" x="467.25" y="304.922">prod_name : varchar(100)</text><ellipse cx="458.25" cy="318.3028" fill="#000000" rx="3" ry="3" style="stroke:#000000;stroke-width:1.0;"/><text fill="#000000" font-family="sans-serif" font-size="14" lengthAdjust="spacing" textLength="132" x="467.25" y="322.5313">cat_id : integer &#171;FK&#187;</text><ellipse cx="458.25" cy="335.9122" fill="#000000" rx="3" ry="3" style="stroke:#000000;stroke-width:1.0;"/><text fill="#000000" font-family="sans-serif" font-size="14" lengthAdjust="spacing" textLength="154" x="467.25" y="340.1407">author_id : integer &#171;FK&#187;</text><text fill="#000000" font-family="sans-serif" font-size="14" lengthAdjust="spacing" textLength="187" x="467.25" y="357.7501">prod_name_ar : varchar(100)</text><text fill="#000000" font-family="sans-serif" font-size="14" lengthAdjust="spacing" textLength="238" x="467.25" y="375.3595">prod_search_name_ar : varchar(100)</text><text fill="#000000" font-family="sans-serif" font-size="14" lengthAdjust="spacing" textLength="166" x="467.25" y="392.9688">prod_descr : varchar(500)</text><text fill="#000000" font-family="sans-serif" font-size="14" lengthAdjust="spacing" textLength="187" x="467.25" y="410.5782">prod_descr_ar : varchar(500)</text><text fill="#000000" font-family="sans-serif" font-size="14" lengthAdjust="spacing" textLength="209" x="467.25" y="428.1876">prod_long_descr : varchar(2000)</text><text fill="#000000" font-family="sans-serif" font-size="14" lengthAdjust="spacing" textLength="230" x="467.25" y="445.797">prod_long_descr_ar : varchar(2000)</text><text fill="#000000" font-family="sans-serif" font-size="14" lengthAdjust="spacing" textLength="281" x="467.25" y="463.4063">prod_search_long_descr_ar : varchar(2000)</text><text fill="#000000" font-family="sans-serif" font-size="14" lengthAdjust="spacing" textLength="147" x="467.25" y="481.0157">prod_size : varchar(10)</text><text fill="#000000" font-family="sans-serif" font-size="14" lengthAdjust="spacing" textLength="162" x="467.25" y="498.6251">prod_colour : varchar(10)</text><text fill="#000000" font-family="sans-serif" font-size="14" lengthAdjust="spacing" textLength="136" x="467.25" y="516.2345">prod_weight : smallint</text><ellipse cx="458.25" cy="529.6153" fill="#000000" rx="3" ry="3" style="stroke:#000000;stroke-width:1.0;"/><text fill="#000000" font-family="sans-serif" font-size="14" lengthAdjust="spacing" textLength="160" x="467.25" y="533.8438">prod_price : numeric(7,2)</text><ellipse cx="458.25" cy="547.2247" fill="#000000" rx="3" ry="3" style="stroke:#000000;stroke-width:1.0;"/><text fill="#000000" font-family="sans-serif" font-size="14" lengthAdjust="spacing" textLength="201" x="467.25" y="551.4532">prod_sales_price : numeric(7,2)</text><ellipse cx="458.25" cy="564.8341" fill="#000000" rx="3" ry="3" style="stroke:#000000;stroke-width:1.0;"/><text fill="#000000" font-family="sans-serif" font-size="14" lengthAdjust="spacing" textLength="152" x="467.25" y="569.0626">prod_on_hand : smallint</text><text fill="#000000" font-family="sans-serif" font-size="14" lengthAdjust="spacing" textLength="203" x="467.25" y="586.672">prod_comments : varchar(1000)</text><text fill="#000000" font-family="sans-serif" font-size="14" lengthAdjust="spacing" textLength="169" x="467.25" y="604.2813">prod_image : varchar(100)</text><ellipse cx="458.25" cy="617.6622" fill="#000000" rx="3" ry="3" style="stroke:#000000;stroke-width:1.0;"/><text fill="#000000" font-family="sans-serif" font-size="14" lengthAdjust="spacing" textLength="182" x="467.25" y="621.8907">prod_discount : numeric(7,2)</text><ellipse cx="458.25" cy="635.2716" fill="#000000" rx="3" ry="3" style="stroke:#000000;stroke-width:1.0;"/><text fill="#000000" font-family="sans-serif" font-size="14" lengthAdjust="spacing" textLength="189" x="467.25" y="639.5001">prod_ship_cost : numeric(7,2)</text><ellipse cx="458.25" cy="652.8809" fill="#000000" rx="3" ry="3" style="stroke:#000000;stroke-width:1.0;"/><text fill="#000000" font-family="sans-serif" font-size="14" lengthAdjust="spacing" textLength="150" x="467.25" y="657.1095">stock_quantity : smallint</text></g><!--class Category--><g id="elem_Category"><rect codeLine="39" fill="#FFFFFF" height="149.2656" id="Category" rx="2.5" ry="2.5" style="stroke:#000000;stroke-width:0.5;" width="211" x="323.25" y="24.17"/><text fill="#000000" font-family="sans-serif" font-size="14" lengthAdjust="spacing" textLength="55" x="401.25" y="43.7032">category</text><line style="stroke:#000000;stroke-width:0.5;" x1="324.25" x2="533.25" y1="51.7794" y2="51.7794"/><ellipse cx="334.25" cy="66.0841" fill="#000000" rx="3" ry="3" style="stroke:#000000;stroke-width:1.0;"/><text fill="#000000" font-family="sans-serif" font-size="14" lengthAdjust="spacing" textLength="132" x="343.25" y="70.3126">cat_id : integer &#171;PK&#187;</text><line style="stroke:#000000;stroke-width:1.0;" x1="324.25" x2="533.25" y1="77.3887" y2="77.3887"/><ellipse cx="334.25" cy="91.6934" fill="#000000" rx="3" ry="3" style="stroke:#000000;stroke-width:1.0;"/><text fill="#000000" font-family="sans-serif" font-size="14" lengthAdjust="spacing" textLength="156" x="343.25" y="95.922">cat_name : varchar(100)</text><ellipse cx="334.25" cy="109.3028" fill="#000000" rx="3" ry="3" style="stroke:#000000;stroke-width:1.0;"/><text fill="#000000" font-family="sans-serif" font-size="14" lengthAdjust="spacing" textLength="177" x="343.25" y="113.5313">cat_name_ar : varchar(100)</text><text fill="#000000" font-family="sans-serif" font-size="14" lengthAdjust="spacing" textLength="164" x="343.25" y="131.1407">cat_descr : varchar(1000)</text><text fill="#000000" font-family="sans-serif" font-size="14" lengthAdjust="spacing" textLength="185" x="343.25" y="148.7501">cat_descr_ar : varchar(1000)</text><text fill="#000000" font-family="sans-serif" font-size="14" lengthAdjust="spacing" textLength="181" x="343.25" y="166.3595">cat_parent_id : integer &#171;FK&#187;</text></g><!--class Customer--><g id="elem_Customer"><rect codeLine="49" fill="#FFFFFF" height="131.6563" id="Customer" rx="2.5" ry="2.5" style="stroke:#000000;stroke-width:0.5;" width="187" x="86.25" y="32.67"/><text fill="#000000" font-family="sans-serif" font-size="14" lengthAdjust="spacing" textLength="58" x="150.75" y="52.2032">customer</text><line style="stroke:#000000;stroke-width:0.5;" x1="87.25" x2="272.25" y1="60.2794" y2="60.2794"/><ellipse cx="97.25" cy="74.5841" fill="#000000" rx="3" ry="3" style="stroke:#000000;stroke-width:1.0;"/><text fill="#000000" font-family="sans-serif" font-size="14" lengthAdjust="spacing" textLength="161" x="106.25" y="78.8126">customer_id : serial &#171;PK&#187;</text><line style="stroke:#000000;stroke-width:1.0;" x1="87.25" x2="272.25" y1="85.8887" y2="85.8887"/><ellipse cx="97.25" cy="100.1934" fill="#000000" rx="3" ry="3" style="stroke:#000000;stroke-width:1.0;"/><text fill="#000000" font-family="sans-serif" font-size="14" lengthAdjust="spacing" textLength="160" x="106.25" y="104.422">first_name : varchar(100)</text><ellipse cx="97.25" cy="117.8028" fill="#000000" rx="3" ry="3" style="stroke:#000000;stroke-width:1.0;"/><text fill="#000000" font-family="sans-serif" font-size="14" lengthAdjust="spacing" textLength="159" x="106.25" y="122.0313">last_name : varchar(100)</text><ellipse cx="97.25" cy="135.4122" fill="#000000" rx="3" ry="3" style="stroke:#000000;stroke-width:1.0;"/><text fill="#000000" font-family="sans-serif" font-size="14" lengthAdjust="spacing" textLength="127" x="106.25" y="139.6407">email : varchar(150)</text><ellipse cx="97.25" cy="153.0216" fill="#000000" rx="3" ry="3" style="stroke:#000000;stroke-width:1.0;"/><text fill="#000000" font-family="sans-serif" font-size="14" lengthAdjust="spacing" textLength="154" x="106.25" y="157.2501">password : varchar(255)</text></g><!--class Order--><g id="elem_Order"><rect codeLine="58" fill="#FFFFFF" height="114.0469" id="Order" rx="2.5" ry="2.5" style="stroke:#000000;stroke-width:0.5;" width="284" x="127.75" y="391.67"/><text fill="#000000" font-family="sans-serif" font-size="14" lengthAdjust="spacing" textLength="41" x="249.25" y="411.2032">orders</text><line style="stroke:#000000;stroke-width:0.5;" x1="128.75" x2="410.75" y1="419.2794" y2="419.2794"/><ellipse cx="138.75" cy="433.5841" fill="#000000" rx="3" ry="3" style="stroke:#000000;stroke-width:1.0;"/><text fill="#000000" font-family="sans-serif" font-size="14" lengthAdjust="spacing" textLength="137" x="147.75" y="437.8126">order_id : serial &#171;PK&#187;</text><line style="stroke:#000000;stroke-width:1.0;" x1="128.75" x2="410.75" y1="444.8887" y2="444.8887"/><ellipse cx="138.75" cy="459.1934" fill="#000000" rx="3" ry="3" style="stroke:#000000;stroke-width:1.0;"/><text fill="#000000" font-family="sans-serif" font-size="14" lengthAdjust="spacing" textLength="171" x="147.75" y="463.422">customer_id : integer &#171;FK&#187;</text><ellipse cx="138.75" cy="476.8028" fill="#000000" rx="3" ry="3" style="stroke:#000000;stroke-width:1.0;"/><text fill="#000000" font-family="sans-serif" font-size="14" lengthAdjust="spacing" textLength="258" x="147.75" y="481.0313">order_date : timestamp without time zone</text><ellipse cx="138.75" cy="494.4122" fill="#000000" rx="3" ry="3" style="stroke:#000000;stroke-width:1.0;"/><text fill="#000000" font-family="sans-serif" font-size="14" lengthAdjust="spacing" textLength="182" x="147.75" y="498.6407">total_amount : numeric(10,2)</text></g><!--class Order_details--><g id="elem_Order_details"><rect codeLine="66" fill="#FFFFFF" height="131.6563" id="Order_details" rx="2.5" ry="2.5" style="stroke:#000000;stroke-width:0.5;" width="212" x="421.75" y="750.17"/><text fill="#000000" font-family="sans-serif" font-size="14" lengthAdjust="spacing" textLength="83" x="486.25" y="769.7032">order_details</text><line style="stroke:#000000;stroke-width:0.5;" x1="422.75" x2="632.75" y1="777.7794" y2="777.7794"/><ellipse cx="432.75" cy="792.0841" fill="#000000" rx="3" ry="3" style="stroke:#000000;stroke-width:1.0;"/><text fill="#000000" font-family="sans-serif" font-size="14" lengthAdjust="spacing" textLength="186" x="441.75" y="796.3126">order_details_id : serial &#171;PK&#187;</text><line style="stroke:#000000;stroke-width:1.0;" x1="422.75" x2="632.75" y1="803.3888" y2="803.3888"/><ellipse cx="432.75" cy="817.6934" fill="#000000" rx="3" ry="3" style="stroke:#000000;stroke-width:1.0;"/><text fill="#000000" font-family="sans-serif" font-size="14" lengthAdjust="spacing" textLength="147" x="441.75" y="821.922">order_id : integer &#171;FK&#187;</text><ellipse cx="432.75" cy="835.3028" fill="#000000" rx="3" ry="3" style="stroke:#000000;stroke-width:1.0;"/><text fill="#000000" font-family="sans-serif" font-size="14" lengthAdjust="spacing" textLength="171" x="441.75" y="839.5313">product_id : char(10) &#171;FK&#187;</text><ellipse cx="432.75" cy="852.9122" fill="#000000" rx="3" ry="3" style="stroke:#000000;stroke-width:1.0;"/><text fill="#000000" font-family="sans-serif" font-size="14" lengthAdjust="spacing" textLength="109" x="441.75" y="857.1407">quantity : smallint</text><ellipse cx="432.75" cy="870.5216" fill="#000000" rx="3" ry="3" style="stroke:#000000;stroke-width:1.0;"/><text fill="#000000" font-family="sans-serif" font-size="14" lengthAdjust="spacing" textLength="154" x="441.75" y="874.7501">unit_price : numeric(7,2)</text></g><!--class SalesHistory--><g id="elem_SalesHistory"><rect codeLine="75" fill="#FFFFFF" height="184.4844" id="SalesHistory" rx="2.5" ry="2.5" style="stroke:#000000;stroke-width:0.5;" width="284" x="29.75" y="724.17"/><text fill="#000000" font-family="sans-serif" font-size="14" lengthAdjust="spacing" textLength="83" x="130.25" y="743.7032">sales_history</text><line style="stroke:#000000;stroke-width:0.5;" x1="30.75" x2="312.75" y1="751.7794" y2="751.7794"/><ellipse cx="40.75" cy="766.0841" fill="#000000" rx="3" ry="3" style="stroke:#000000;stroke-width:1.0;"/><text fill="#000000" font-family="sans-serif" font-size="14" lengthAdjust="spacing" textLength="186" x="49.75" y="770.3126">sales_history_id : serial &#171;PK&#187;</text><line style="stroke:#000000;stroke-width:1.0;" x1="30.75" x2="312.75" y1="777.3888" y2="777.3888"/><ellipse cx="40.75" cy="791.6934" fill="#000000" rx="3" ry="3" style="stroke:#000000;stroke-width:1.0;"/><text fill="#000000" font-family="sans-serif" font-size="14" lengthAdjust="spacing" textLength="171" x="49.75" y="795.922">customer_id : integer &#171;FK&#187;</text><ellipse cx="40.75" cy="809.3028" fill="#000000" rx="3" ry="3" style="stroke:#000000;stroke-width:1.0;"/><text fill="#000000" font-family="sans-serif" font-size="14" lengthAdjust="spacing" textLength="195" x="49.75" y="813.5313">customer_name : varchar(200)</text><ellipse cx="40.75" cy="826.9122" fill="#000000" rx="3" ry="3" style="stroke:#000000;stroke-width:1.0;"/><text fill="#000000" font-family="sans-serif" font-size="14" lengthAdjust="spacing" textLength="147" x="49.75" y="831.1407">order_id : integer &#171;FK&#187;</text><ellipse cx="40.75" cy="844.5216" fill="#000000" rx="3" ry="3" style="stroke:#000000;stroke-width:1.0;"/><text fill="#000000" font-family="sans-serif" font-size="14" lengthAdjust="spacing" textLength="258" x="49.75" y="848.7501">order_date : timestamp without time zone</text><ellipse cx="40.75" cy="862.1309" fill="#000000" rx="3" ry="3" style="stroke:#000000;stroke-width:1.0;"/><text fill="#000000" font-family="sans-serif" font-size="14" lengthAdjust="spacing" textLength="185" x="49.75" y="866.3595">product_name : varchar(100)</text><ellipse cx="40.75" cy="879.7403" fill="#000000" rx="3" ry="3" style="stroke:#000000;stroke-width:1.0;"/><text fill="#000000" font-family="sans-serif" font-size="14" lengthAdjust="spacing" textLength="109" x="49.75" y="883.9688">quantity : smallint</text><ellipse cx="40.75" cy="897.3497" fill="#000000" rx="3" ry="3" style="stroke:#000000;stroke-width:1.0;"/><text fill="#000000" font-family="sans-serif" font-size="14" lengthAdjust="spacing" textLength="154" x="49.75" y="901.5782">unit_price : numeric(7,2)</text></g><!--class Author--><g id="elem_Author"><rect codeLine="87" fill="#FFFFFF" height="78.8281" id="Author" rx="2.5" ry="2.5" style="stroke:#000000;stroke-width:0.5;" width="204" x="587.75" y="59.17"/><text fill="#000000" font-family="sans-serif" font-size="14" lengthAdjust="spacing" textLength="41" x="669.25" y="78.7032">author</text><line style="stroke:#000000;stroke-width:0.5;" x1="588.75" x2="790.75" y1="86.7794" y2="86.7794"/><ellipse cx="598.75" cy="101.0841" fill="#000000" rx="3" ry="3" style="stroke:#000000;stroke-width:1.0;"/><text fill="#000000" font-family="sans-serif" font-size="14" lengthAdjust="spacing" textLength="144" x="607.75" y="105.3126">author_id : serial &#171;PK&#187;</text><line style="stroke:#000000;stroke-width:1.0;" x1="588.75" x2="790.75" y1="112.3887" y2="112.3887"/><ellipse cx="598.75" cy="126.6934" fill="#000000" rx="3" ry="3" style="stroke:#000000;stroke-width:1.0;"/><text fill="#000000" font-family="sans-serif" font-size="14" lengthAdjust="spacing" textLength="178" x="607.75" y="130.922">author_name : varchar(200)</text></g><!--link Category to Category--><g id="link_Category_Category"><path codeLine="96" d="M428.75,6 C428.75,6 298.25,6.17 298.25,6.17 C298.25,6.17 298.25,203.17 298.25,203.17 C298.25,203.17 367.5,203.17 367.5,203.17 C367.5,203.17 367.5,205.11 367.5,188.22 " fill="none" id="Category-Category" style="stroke:#000000;stroke-width:1.0;stroke-dasharray:7.0,7.0;"/><line style="stroke:#000000;stroke-width:1.0;" x1="428.75" x2="434.75" y1="16" y2="24"/><line style="stroke:#000000;stroke-width:1.0;" x1="428.75" x2="422.75" y1="16" y2="24"/><line style="stroke:#000000;stroke-width:1.0;" x1="428.75" x2="428.75" y1="16" y2="24"/><ellipse cx="428.75" cy="10" fill="none" rx="4" ry="4" style="stroke:#000000;stroke-width:1.0;"/><line style="stroke:#000000;stroke-width:1.0;" x1="367.5" x2="367.5" y1="184.22" y2="173.22"/><ellipse cx="367.5" cy="184.22" fill="none" rx="4" ry="4" style="stroke:#000000;stroke-width:1.0;"/><line style="stroke:#000000;stroke-width:1.0;" x1="363.5" x2="371.5" y1="177.22" y2="177.22"/><text fill="#000000" font-family="sans-serif" font-size="13" lengthAdjust="spacing" textLength="50" x="273.25" y="99.5951">parent of</text></g><!--link Category to Product--><g id="link_Category_Product"><path codeLine="99" d="M490.75,181.32 C490.75,199.49 490.75,193.84 490.75,215.03 " fill="none" id="Category-Product" style="stroke:#000000;stroke-width:1.0;stroke-dasharray:7.0,7.0;"/><line style="stroke:#000000;stroke-width:1.0;" x1="486.75" x2="494.75" y1="177.32" y2="177.32"/><line style="stroke:#000000;stroke-width:1.0;" x1="486.75" x2="494.75" y1="180.32" y2="180.32"/><line style="stroke:#000000;stroke-width:1.0;" x1="490.75" x2="490.75" y1="181.32" y2="173.32"/><line style="stroke:#000000;stroke-width:1.0;" x1="490.75" x2="496.75" y1="225.03" y2="233.03"/><line style="stroke:#000000;stroke-width:1.0;" x1="490.75" x2="484.75" y1="225.03" y2="233.03"/><line style="stroke:#000000;stroke-width:1.0;" x1="490.75" x2="490.75" y1="225.03" y2="233.03"/><ellipse cx="490.75" cy="219.03" fill="none" rx="4" ry="4" style="stroke:#000000;stroke-width:1.0;"/><text fill="#000000" font-family="sans-serif" font-size="13" lengthAdjust="spacing" textLength="67" x="422.75" y="199.6751">categorizes</text></g><!--link Author to Product--><g id="link_Author_Product"><path codeLine="102" d="M671,146.48 C671,171.11 671,178.89 671,215.12 " fill="none" id="Author-Product" style="stroke:#000000;stroke-width:1.0;stroke-dasharray:7.0,7.0;"/><line style="stroke:#000000;stroke-width:1.0;" x1="667" x2="675" y1="142.48" y2="142.48"/><line style="stroke:#000000;stroke-width:1.0;" x1="667" x2="675" y1="145.48" y2="145.48"/><line style="stroke:#000000;stroke-width:1.0;" x1="671" x2="671" y1="146.48" y2="138.48"/><line style="stroke:#000000;stroke-width:1.0;" x1="671" x2="677" y1="225.12" y2="233.12"/><line style="stroke:#000000;stroke-width:1.0;" x1="671" x2="665" y1="225.12" y2="233.12"/><line style="stroke:#000000;stroke-width:1.0;" x1="671" x2="671" y1="225.12" y2="233.12"/><ellipse cx="671" cy="219.12" fill="none" rx="4" ry="4" style="stroke:#000000;stroke-width:1.0;"/><text fill="#000000" font-family="sans-serif" font-size="13" lengthAdjust="spacing" textLength="56" x="614" y="182.2951">written by</text></g><!--link Customer to Order--><g id="link_Customer_Order"><path codeLine="105" d="M200.5,172.91 C200.5,238.41 200.5,311.59 200.5,373.67 " fill="none" id="Customer-Order" style="stroke:#000000;stroke-width:1.0;stroke-dasharray:7.0,7.0;"/><line style="stroke:#000000;stroke-width:1.0;" x1="196.5" x2="204.5" y1="168.91" y2="168.91"/><line style="stroke:#000000;stroke-width:1.0;" x1="196.5" x2="204.5" y1="171.91" y2="171.91"/><line style="stroke:#000000;stroke-width:1.0;" x1="200.5" x2="200.5" y1="172.91" y2="164.91"/><line style="stroke:#000000;stroke-width:1.0;" x1="200.5" x2="206.5" y1="383.67" y2="391.67"/><line style="stroke:#000000;stroke-width:1.0;" x1="200.5" x2="194.5" y1="383.67" y2="391.67"/><line style="stroke:#000000;stroke-width:1.0;" x1="200.5" x2="200.5" y1="383.67" y2="391.67"/><ellipse cx="200.5" cy="377.67" fill="none" rx="4" ry="4" style="stroke:#000000;stroke-width:1.0;"/><text fill="#000000" font-family="sans-serif" font-size="13" lengthAdjust="spacing" textLength="38" x="161.5" y="274.7851">places</text></g><!--link Order to Order_details--><g id="link_Order_Order_details"><path codeLine="106" d="M419.94,449.17 C433.6,449.17 434.5,449.17 434.5,449.17 C434.5,449.17 434.5,636.47 434.5,742.13 " fill="none" id="Order-Order_details" style="stroke:#000000;stroke-width:1.0;stroke-dasharray:7.0,7.0;"/><line style="stroke:#000000;stroke-width:1.0;" x1="415.94" x2="415.94" y1="453.17" y2="445.17"/><line style="stroke:#000000;stroke-width:1.0;" x1="418.94" x2="418.94" y1="453.17" y2="445.17"/><line style="stroke:#000000;stroke-width:1.0;" x1="419.94" x2="411.94" y1="449.17" y2="449.17"/><line style="stroke:#000000;stroke-width:1.0;" x1="434.5" x2="440.5" y1="742.13" y2="750.13"/><line style="stroke:#000000;stroke-width:1.0;" x1="434.5" x2="428.5" y1="742.13" y2="750.13"/><line style="stroke:#000000;stroke-width:1.0;" x1="434.5" x2="434.5" y1="742.13" y2="750.13"/><line style="stroke:#000000;stroke-width:1.0;" x1="438.5" x2="430.5" y1="740.13" y2="740.13"/><text fill="#000000" font-family="sans-serif" font-size="13" lengthAdjust="spacing" textLength="49" x="384.5" y="584.8651">contains</text></g><!--link Product to Order_details--><g id="link_Product_Order_details"><path codeLine="107" d="M540.5,672.31 C540.5,703.28 540.5,707.01 540.5,731.83 " fill="none" id="Product-Order_details" style="stroke:#000000;stroke-width:1.0;stroke-dasharray:7.0,7.0;"/><line style="stroke:#000000;stroke-width:1.0;" x1="536.5" x2="544.5" y1="668.31" y2="668.31"/><line style="stroke:#000000;stroke-width:1.0;" x1="536.5" x2="544.5" y1="671.31" y2="671.31"/><line style="stroke:#000000;stroke-width:1.0;" x1="540.5" x2="540.5" y1="672.31" y2="664.31"/><line style="stroke:#000000;stroke-width:1.0;" x1="540.5" x2="546.5" y1="741.83" y2="749.83"/><line style="stroke:#000000;stroke-width:1.0;" x1="540.5" x2="534.5" y1="741.83" y2="749.83"/><line style="stroke:#000000;stroke-width:1.0;" x1="540.5" x2="540.5" y1="741.83" y2="749.83"/><ellipse cx="540.5" cy="735.83" fill="none" rx="4" ry="4" style="stroke:#000000;stroke-width:1.0;"/><text fill="#000000" font-family="sans-serif" font-size="13" lengthAdjust="spacing" textLength="45" x="494.5" y="703.5651">listed in</text></g><!--link Customer to SalesHistory--><g id="link_Customer_SalesHistory"><path codeLine="110" d="M107,172.88 C107,301.42 107,558.97 107,705.88 " fill="none" id="Customer-SalesHistory" style="stroke:#000000;stroke-width:1.0;stroke-dasharray:7.0,7.0;"/><line style="stroke:#000000;stroke-width:1.0;" x1="103" x2="111" y1="168.88" y2="168.88"/><line style="stroke:#000000;stroke-width:1.0;" x1="103" x2="111" y1="171.88" y2="171.88"/><line style="stroke:#000000;stroke-width:1.0;" x1="107" x2="107" y1="172.88" y2="164.88"/><line style="stroke:#000000;stroke-width:1.0;" x1="107" x2="113" y1="715.88" y2="723.88"/><line style="stroke:#000000;stroke-width:1.0;" x1="107" x2="101" y1="715.88" y2="723.88"/><line style="stroke:#000000;stroke-width:1.0;" x1="107" x2="107" y1="715.88" y2="723.88"/><ellipse cx="107" cy="709.88" fill="none" rx="4" ry="4" style="stroke:#000000;stroke-width:1.0;"/><text fill="#000000" font-family="sans-serif" font-size="13" lengthAdjust="spacing" textLength="99" x="7" y="440.8751">recorded sales of</text></g><!--link Order to SalesHistory--><g id="link_Order_SalesHistory"><path codeLine="111" d="M220.75,513.69 C220.75,571.95 220.75,637.36 220.75,705.94 " fill="none" id="Order-SalesHistory" style="stroke:#000000;stroke-width:1.0;stroke-dasharray:7.0,7.0;"/><line style="stroke:#000000;stroke-width:1.0;" x1="216.75" x2="224.75" y1="509.69" y2="509.69"/><line style="stroke:#000000;stroke-width:1.0;" x1="216.75" x2="224.75" y1="512.69" y2="512.69"/><line style="stroke:#000000;stroke-width:1.0;" x1="220.75" x2="220.75" y1="513.69" y2="505.69"/><line style="stroke:#000000;stroke-width:1.0;" x1="220.75" x2="226.75" y1="715.94" y2="723.94"/><line style="stroke:#000000;stroke-width:1.0;" x1="220.75" x2="214.75" y1="715.94" y2="723.94"/><line style="stroke:#000000;stroke-width:1.0;" x1="220.75" x2="220.75" y1="715.94" y2="723.94"/><ellipse cx="220.75" cy="709.94" fill="none" rx="4" ry="4" style="stroke:#000000;stroke-width:1.0;"/><text fill="#000000" font-family="sans-serif" font-size="13" lengthAdjust="spacing" textLength="52" x="167.75" y="611.3051">logged in</text></g><!--SRC=[fLPTJzim57tFhx1uWI901QcQL24aO9kGzZ2qFUonCibjOk7OdUsiAfJ_lkkF94xhb4tqARdd-ERSw-Fh7fFpytDoByMIbOsYXabX8rd52Y0vKpc7J3ypiQAAreGp0MQp0YALgMG4v9ngJLupWhyxcZ-NIZQYk9TSAlAhOWOSSgkKNFlW7KUMfqjLW8gZRrbsx6Hz4OQP3VaCIoQObQQTjWny_6YbPD7aveXGJHxzizDmIYooO0MPaxoYwkHoEY7Nru_VRcuGnGmTHT0QaFI7gi2RJXoOK-ENCs6W18Mhl_hLfuGsMBjAmGJnBks2gltC3jLWW- -G2j1vZCrsiU7I6EPIb7lhhwP9nZ3BW1Ha_XkNlGpxs24vRcoZqjWQM5aPn7HDENhBz1kpKYot6KLJ0pwUV3gxclIefXpqEnmf5XKLnJ1xa5JNQ24zx7mlYzMqJBh2Dv_f7CrjniLLR8NVq4c6DZ9_NlnkgBTm9EwjzpMw3qgfDixOz-4bE3lXpA6lBU6GhKTjPy5TrxHzwR2zbHsCWm3r9qzDN5g37S2U-DB2IrjQUFKvD3QEyhtobapfyG9n38s3K5F6Os3MxYiEhpMEeTZTizaarks6b7Qglzl78Dc53-eT5fKO9pv5WRkCk64rQ4Fh5Lapd3ADSH7o8WKuif66yWMjTmnuERN-sfMBEsQmuaXr6nce3x63LKHr9ae8StXluBOpyPIa36_Z3Sxrz3cEYl6dlMBOo70cVjh8Wm-4MWQaZ-r8HzWnqbLhfCFT-AyDRLitvjaFDSxVLAvZj-unz2g-mKQQ52Yf3dJNym_WxW-37NZXPZxknzK30sMNRR8kz2OlBkIsfypn2dTJWyZbaLtSNk9FO6yTZNRlo7sMxHQpl7RSUJSlyGxIOsby_LbemtwAjMB6W21F6vV1d_51WLathS9gpx4ruByM-sKViEZsTUUyMP5IuBD0NllPE4_Cv6XYAD1QJafhyyDY1YS2SoZ8hGyBVovSVtjv2JwNPHc- -HS0]--></g></svg>